<svg width="1025" height="104" viewBox="0 0 1025 104" fill="none" xmlns="http://www.w3.org/2000/svg">
<path d="M2.63796e-06 0C8.79169 0.847706 14.5875 -0.316217 31.0014 1.17081C41.944 2.16216 50.4589 2.26459 56.5461 1.47811C62.7118 0.513894 71.0055 0.392571 82.2156 1.11177C99.0308 2.19056 104.88 0.369945 113.889 1M113.889 103C105.097 102.152 99.3013 103.316 82.8875 101.829C71.9449 100.838 63.43 100.735 57.3428 101.522C51.1771 102.486 42.8834 102.607 31.6733 101.888C14.8581 100.809 9.00934 102.151 0 101.521M0.808844 100C-0.132587 89.3211 -0.252203 74.2737 0.449998 54.8579C1.5033 25.7341 0.193675 15.6041 0.808841 2.90307e-06" stroke="#852E2C" stroke-width="1.39378" stroke-linecap="round"/>
<path d="M61.5041 48.5204C60.9438 53.8573 60.3851 59.1942 59.828 64.5311L71.1271 62.9847C69.6713 56.6637 68.4095 50.5218 68.1246 44.012L57.7689 48.3486C60.295 51.5817 59.3037 57.8301 59.4809 62.1425C59.7347 68.3377 61.1186 74.5909 65.7062 79.0292C68.3401 81.5702 71.7712 81.1588 74.4529 79.0292C82.7949 72.4057 77.5081 59.6838 74.3308 51.7438C73.0666 48.5833 70.167 46.3545 66.6425 47.3322C63.5753 48.1841 61.1354 51.8794 62.2775 55.1028C63.3949 58.223 64.5067 61.3415 65.6129 64.4585C67.0926 68.6111 72.5805 70.9295 75.9278 67.2124C79.0597 63.7325 80.3527 59.7492 80.9321 55.1754C81.3966 51.5018 81.3511 48.4236 82.3376 45.0405L70.6985 43.4481C70.9092 49.8514 70.5477 56.2184 69.9204 62.5926C69.645 65.3998 69.4056 68.2554 68.8932 71.0311C68.8309 71.3651 68.7208 72.2411 68.6848 72.1685C69.111 71.2893 70.0265 71.1118 71.4312 71.6361C73.0881 70.5584 74.2055 70.748 74.7833 72.2048C74.168 72.0499 74.4314 69.3807 74.496 68.7588C74.7067 66.7115 72.8822 64.6763 71.0337 64.1608C68.8548 63.5558 66.992 64.6448 65.7086 66.3388C63.9392 68.6934 62.5098 70.7093 62.6438 73.8407C62.7755 76.9069 64.6575 79.7286 67.1932 81.3282C72.5183 84.6847 78.5808 81.1443 80.0438 75.4573C81.332 70.4407 81.4182 64.7077 81.7845 59.5531C82.1676 54.1856 82.328 48.7987 82.5363 43.4239C82.6489 40.4764 80.197 37.8773 77.398 37.5409C74.3116 37.1683 71.9604 38.9639 70.8949 41.8316C69.6618 45.1542 69.4367 48.7044 69.0703 52.2061C68.9907 53.3617 68.8007 54.5068 68.5029 55.6255C68.1629 56.9638 67.9713 57.5203 67.186 58.3649L77.501 61.1189C76.441 57.9842 75.3795 54.8511 74.3164 51.7197L62.2703 55.1149C63.5034 58.3431 64.691 61.5859 65.6799 64.8989C66.0175 66.0242 66.4509 67.2439 66.5131 68.4079C66.5754 69.6179 66.4796 69.5719 65.6991 70.2011H74.4457C72.8678 68.6983 72.3794 67.2729 71.946 64.6351C71.6658 62.9218 71.7066 59.8145 71.6563 57.5615C71.5509 50.9428 70.5189 44.9388 66.3408 39.6681C63.0437 35.5106 55.7289 38.9687 55.9851 44.0023C56.361 51.4002 57.4217 59.1079 60.0268 66.0677C61.0396 68.7684 63.3406 70.6875 66.3384 70.2325C68.9506 69.8357 71.5821 67.4447 71.3259 64.5214C70.8582 59.1845 70.392 53.8476 69.9275 48.5107C69.4487 43.0053 62.0764 43.073 61.5041 48.5107" fill="#FFD2B6"/>
<path d="M81.8395 18.6131C78.7005 18.1509 62.4451 12.9721 67.2195 21.5582C69.0392 24.8276 71.9508 25.7884 75.1664 26.5652C76.1793 26.8072 82.3615 27.6372 80.968 30.0112C80.7568 30.3717 80.5301 30.7192 80.2894 31.0536M80.2894 31.0536C78.268 33.8611 75.2584 35.7394 72.1304 36.5936C68.6298 37.5495 64.9831 37.3196 61.5017 36.5936C60.544 36.3952 59.5862 36.1362 58.8679 35.449C58.1496 34.7617 57.7761 33.5129 58.2813 32.5716C58.6045 31.9617 59.2079 31.6036 59.7921 31.3277C63.2711 29.6579 67.1093 29.4885 70.8446 29.3433C74.0123 29.2223 77.3669 29.1473 80.051 30.8921C80.1314 30.9445 80.2109 30.9983 80.2894 31.0536ZM80.2894 31.0536C82.8815 32.8778 84.377 36.2176 84.9115 39.6259C85.4623 43.1373 85.151 46.7721 84.8828 50.3609C84.4183 56.7884 84.1645 63.2199 84.1214 69.6555C84.0807 75.4344 83.9298 82.5709 77.9631 84.9014C72.6499 86.9826 66.2761 87.1689 62.1793 83.1735C60.4027 81.4408 59.9741 78.9893 59.3061 76.533C56.792 67.1895 55.0249 57.3159 54.412 47.4279C54.2755 45.2184 53.7703 42.5419 54.6514 40.4099C55.0129 39.5412 56.1335 39.2992 56.7369 39.9259C57.3738 40.6011 57.3187 42.6387 57.4552 43.585C58.4656 50.2415 59.4521 56.9045 60.4147 63.574C60.86 66.6305 61.3221 69.6821 61.7531 72.7409C62.2703 76.4121 62.4906 80.5478 66.4868 82.433C67.9953 83.1444 69.7025 83.159 71.3282 82.704C73.6173 82.07 76.9526 82.0313 78.6431 79.5048C80.1084 77.3123 80.1755 74.5341 80.4844 71.9617C81.5187 63.303 82.2179 54.4023 81.4421 45.7678C81.2817 44.0085 81.059 42.2177 80.3479 40.6592C79.9743 39.8364 79.347 39.0209 78.5042 39.0209C77.9798 39.0209 77.4842 39.3427 77.0915 39.7468C75.8632 41.0125 75.4921 42.9799 75.3819 44.807C75.2718 46.6341 75.3412 48.512 74.7259 50.2327C73.6316 53.2843 71.2229 53.669 69.123 51.7621C68.1075 50.8196 67.3278 49.6468 66.8483 48.3402C66.4054 47.1302 66.6353 44.1827 65.5003 43.6333C64.6838 43.2365 63.659 43.7423 63.1059 44.5554C62.5528 45.3685 62.3493 46.4042 62.2368 47.4061C61.7579 51.5757 63.0293 57.4224 66.2905 59.8327C67.7271 60.8951 69.6115 61.0935 71.345 60.6749C73.6987 60.1086 76.105 57.8725 77.6494 55.2711C78.9799 60.0146 80.389 69.9936 75.3819 71.9617C70.3748 73.9298 19.041 72.7818 0 71.9617" stroke="#763E2E" stroke-linecap="round" stroke-linejoin="round"/>
<path d="M171.231 0.827696L171.142 1.51884L171.133 1.51765L171.124 1.51622L171.231 0.827696ZM196.776 0.520395L196.839 1.21444L196.776 0.520395ZM227.71 0.806325C228.094 0.769386 228.434 1.05001 228.471 1.43312C228.508 1.81622 228.227 2.15674 227.844 2.19367L227.71 0.806325ZM145.562 0.461354L145.606 1.15682L145.562 0.461354ZM113.937 1.52408C113.553 1.55093 113.22 1.26145 113.193 0.877501C113.166 0.493556 113.456 0.160541 113.84 0.13369L113.937 1.52408ZM170.435 100.871L170.524 100.18L170.533 100.182L170.542 100.183L170.435 100.871ZM144.89 101.179L144.827 100.485L144.89 101.179ZM113.955 103.694C113.572 103.731 113.232 103.45 113.195 103.067C113.158 102.684 113.438 102.343 113.822 102.306L113.955 103.694ZM196.104 101.238L196.059 100.542L196.059 100.542L196.104 101.238ZM227.287 102.305C227.671 102.278 228.004 102.567 228.031 102.951C228.058 103.335 227.769 103.668 227.385 103.695L227.287 102.305ZM114.709 102.469C114.643 102.849 114.282 103.102 113.903 103.036C113.524 102.97 113.27 102.609 113.336 102.23L114.709 102.469ZM114.741 56.756L115.436 56.7063L114.741 56.756ZM113.328 1.40383L113.274 0.709048L114.663 0.600571L114.718 1.29535L113.328 1.40383ZM171.321 0.136549C177.333 0.913314 185.788 0.816098 196.713 -0.173655L196.839 1.21444C185.879 2.20739 177.304 2.31504 171.142 1.51884L171.321 0.136549ZM196.713 -0.173655C204.982 -0.92279 210.585 -0.462104 215.216 0.0782571C219.856 0.619783 223.408 1.22116 227.71 0.806325L227.844 2.19367C223.355 2.62655 219.613 1.99461 215.054 1.46265C210.486 0.929523 204.984 0.476554 196.839 1.21444L196.713 -0.173655ZM171.124 1.51622C165.033 0.563742 156.799 0.438753 145.606 1.15682L145.517 -0.234108C156.745 -0.954439 165.098 -0.836783 171.339 0.139173L171.124 1.51622ZM145.606 1.15682C137.172 1.69795 131.484 1.63213 126.78 1.51005C122.073 1.38789 118.4 1.21198 113.937 1.52408L113.84 0.13369C118.386 -0.184266 122.143 -0.00454379 126.816 0.116739C131.493 0.238112 137.137 0.30355 145.517 -0.234108L145.606 1.15682ZM170.345 101.563C164.333 100.786 155.878 100.883 144.953 101.873L144.827 100.485C155.787 99.4918 164.361 99.3841 170.524 100.18L170.345 101.563ZM144.953 101.873C136.729 102.618 131.163 102.862 126.556 103.026C121.946 103.189 118.325 103.272 113.955 103.694L113.822 102.306C118.244 101.88 121.916 101.796 126.506 101.633C131.098 101.469 136.637 101.227 144.827 100.485L144.953 101.873ZM170.542 100.183C176.633 101.135 184.867 101.26 196.059 100.542L196.149 101.933C184.921 102.654 176.568 102.536 170.327 101.56L170.542 100.183ZM196.059 100.542C204.528 99.999 210.134 100.602 214.746 101.261C219.365 101.921 222.876 102.613 227.287 102.305L227.385 103.695C222.787 104.017 219.089 103.289 214.549 102.641C210.001 101.991 204.495 101.398 196.149 101.933L196.059 100.542ZM113.336 102.23C115.205 91.5277 115.449 76.3964 114.045 56.8058L115.436 56.7063C116.842 76.3357 116.607 91.6002 114.709 102.469L113.336 102.23ZM114.045 56.8058C112.99 42.068 113.118 32.1319 113.357 23.912C113.595 15.6884 113.94 9.23718 113.328 1.40383L114.718 1.29535C115.337 9.22213 114.987 15.7666 114.75 23.9524C114.513 32.142 114.385 42.029 115.436 56.7063L114.045 56.8058Z" fill="#852E2C"/>
<path d="M284.865 1.47811L284.775 2.16921L284.766 2.16801L284.757 2.16656L284.865 1.47811ZM310.296 1.17081L310.359 1.86483L310.359 1.86483L310.296 1.17081ZM341.093 -0.693646C341.476 -0.730749 341.817 -0.450271 341.854 -0.0671807C341.891 0.31591 341.61 0.656543 341.227 0.693646L341.093 -0.693646ZM259.31 1.11177L259.354 1.80722L259.354 1.80722L259.31 1.11177ZM227.826 2.17448C227.442 2.20145 227.109 1.91207 227.082 1.52813C227.055 1.14419 227.344 0.811089 227.728 0.784119L227.826 2.17448ZM284.072 101.522L284.162 100.831L284.171 100.832L284.18 100.833L284.072 101.522ZM258.641 101.829L258.578 101.135L258.578 101.135L258.641 101.829ZM227.844 103.694C227.461 103.731 227.121 103.45 227.083 103.067C227.046 102.684 227.327 102.343 227.71 102.306L227.844 103.694ZM309.627 101.888L309.583 101.193L309.627 101.888ZM341.111 100.825C341.495 100.799 341.828 101.088 341.855 101.472C341.882 101.856 341.593 102.189 341.209 102.216L341.111 100.825ZM228.598 103.119C228.532 103.499 228.171 103.753 227.792 103.687C227.413 103.621 227.159 103.26 227.224 102.881L228.598 103.119ZM228.625 57.4065L229.321 57.3569L229.321 57.3569L228.625 57.4065ZM227.216 2.054L227.162 1.3592L228.552 1.25121L228.606 1.946L227.216 2.054ZM341.922 101.561C341.889 101.944 341.55 102.228 341.167 102.194C340.784 102.161 340.5 101.822 340.534 101.439L341.922 101.561ZM340.712 54.8579L341.408 54.8328L340.712 54.8579ZM340.485 0.0345232C340.47 -0.350064 340.769 -0.674069 341.154 -0.689163C341.538 -0.704258 341.862 -0.404725 341.877 -0.0201383L340.485 0.0345232ZM284.955 0.787014C290.939 1.56369 299.357 1.46652 310.233 0.476785L310.359 1.86483C299.448 2.8578 290.911 2.96549 284.775 2.16921L284.955 0.787014ZM310.233 0.476785C318.431 -0.26921 323.981 -0.350369 328.574 -0.351233C333.17 -0.352097 336.759 -0.273867 341.093 -0.693646L341.227 0.693646C336.809 1.12157 333.136 1.04169 328.574 1.04255C324.008 1.04341 318.503 1.1238 310.359 1.86483L310.233 0.476785ZM284.757 2.16656C278.694 1.21419 270.497 1.08916 259.354 1.80722L259.265 0.416319C270.443 -0.304022 278.76 -0.186399 284.973 0.78966L284.757 2.16656ZM259.354 1.80722C250.957 2.34837 245.294 2.28254 240.611 2.16047C235.925 2.0383 232.269 1.8624 227.826 2.17448L227.728 0.784119C232.255 0.466137 235.995 0.645876 240.647 0.767156C245.303 0.888525 250.922 0.953961 259.265 0.416319L259.354 1.80722ZM283.982 102.213C277.998 101.436 269.58 101.533 258.704 102.523L258.578 101.135C269.489 100.142 278.026 100.034 284.162 100.831L283.982 102.213ZM258.704 102.523C250.506 103.269 244.956 103.35 240.363 103.351C235.767 103.352 232.179 103.274 227.844 103.694L227.71 102.306C232.128 101.878 235.801 101.958 240.363 101.957C244.929 101.957 250.434 101.876 258.578 101.135L258.704 102.523ZM284.18 100.833C290.243 101.786 298.44 101.911 309.583 101.193L309.672 102.584C298.494 103.304 290.178 103.186 283.964 102.21L284.18 100.833ZM309.583 101.193C317.98 100.652 323.643 100.717 328.326 100.84C333.013 100.962 336.669 101.138 341.111 100.825L341.209 102.216C336.682 102.534 332.942 102.354 328.29 102.233C323.634 102.111 318.015 102.046 309.672 102.584L309.583 101.193ZM227.224 102.881C229.084 92.1782 229.327 77.0467 227.93 57.456L229.321 57.3569C230.72 76.9863 230.487 92.2504 228.598 103.119L227.224 102.881ZM227.93 57.456C226.88 42.7184 227.007 32.7823 227.245 24.5625C227.482 16.339 227.825 9.88756 227.216 2.054L228.606 1.946C229.222 9.87258 228.874 16.4169 228.638 24.6027C228.402 32.7924 228.274 42.6795 229.321 57.3569L227.93 57.456ZM340.534 101.439C341.466 90.8155 340.716 74.3286 340.016 54.883L341.408 54.8328C342.106 74.2189 342.864 90.8267 341.922 101.561L340.534 101.439ZM340.016 54.883C339.49 40.2982 339.761 30.468 340.087 22.3348C340.412 14.1985 340.789 7.80176 340.485 0.0345232L341.877 -0.0201383C342.185 7.81673 341.804 14.2835 341.479 22.3905C341.155 30.5006 340.885 40.2937 341.408 54.8328L340.016 54.883Z" fill="#852E2C"/>
<path d="M455.05 0C446.297 0.847706 440.527 -0.316217 424.186 1.17081C413.292 2.16216 404.815 2.26459 398.755 1.47811C392.616 0.513894 384.36 0.392571 373.199 1.11177C356.459 2.19056 350.636 0.849243 341.667 1.4793M341.667 103C350.419 102.152 356.189 103.316 372.53 101.829C383.424 100.838 391.901 100.735 397.962 101.522C404.1 102.486 412.357 102.607 423.517 101.888C440.257 100.809 446.08 102.151 455.05 101.521M455.118 101.5C456.055 90.8211 455.301 74.2737 454.602 54.8579C453.553 25.7341 455.683 15.6113 455.071 0.00719245" stroke="#852E2C" stroke-width="1.39378" stroke-linecap="round"/>
<path d="M568.938 0C560.186 0.847706 554.415 -0.316217 538.075 1.17081C527.181 2.16216 518.704 2.26459 512.643 1.47811C506.505 0.513894 498.248 0.392571 487.088 1.11177C470.347 2.19056 464.525 0.849243 455.555 1.4793M455.555 103C464.308 102.152 470.078 103.316 486.419 101.829C497.313 100.838 505.79 100.735 511.85 101.522C517.989 102.486 526.245 102.607 537.406 101.888C554.146 100.809 559.969 102.151 568.938 101.521M569.006 101.5C569.943 90.8211 569.189 74.2737 568.49 54.8579C567.442 25.7341 569.572 15.6113 568.959 0.00719245" stroke="#852E2C" stroke-width="1.39378" stroke-linecap="round"/>
<path d="M533.161 83.8955C534.375 85.0721 535.627 85.0881 537.254 84.4998C539.877 83.5406 541.643 81.8269 544.551 81.3569C549.903 80.4905 555.534 81.7758 560.483 79.1701C565.618 76.4652 566.11 70.5824 564.315 65.9433C562.31 60.7574 557.657 56.7514 553.45 52.9563L552.683 53.6437C553.332 54.1392 555.231 55.4661 555.48 56.1662C555.555 56.3837 555.091 56.7833 555.206 57.0711C555.798 58.577 556.658 59.7439 557.603 61.1283C559.352 63.686 559.912 67.3948 563.156 68.6161C563.809 68.8623 564.775 68.4594 565.086 67.9127C567.227 64.1081 561.546 57.7584 558.217 55.5204C557.643 55.1367 556.79 55.2486 556.198 55.5204C556.587 55.3414 553.7 53.1609 553.45 52.9626C553.348 52.8715 553.21 52.8203 553.067 52.8203C552.923 52.8203 552.785 52.8715 552.683 52.9626C552.581 53.0538 552.524 53.1775 552.524 53.3064C552.524 53.4353 552.581 53.5589 552.683 53.6501C556.49 57.4387 557.322 61.7965 557.65 66.7585C557.75 68.2708 558.485 70.7295 557.892 72.1938C557.111 74.1121 554.681 74.2176 552.694 74.5149C549.125 75.0521 545.375 75.1544 541.943 76.2638C540.536 76.7003 539.23 77.3611 538.086 78.2141C536.612 79.3427 535.42 82.1722 533.561 82.5623C533.41 82.6018 533.273 82.6757 533.163 82.7767C533.053 82.8777 532.974 83.0025 532.934 83.1389C532.894 83.2753 532.893 83.4187 532.933 83.5552C532.973 83.6917 533.052 83.8166 533.161 83.9179" fill="#F5D6C1"/>
<path d="M501.414 66.6493C500.806 69.7709 503.085 72.0778 505.081 74.5252C507.487 77.4782 510.637 81.3371 514.394 83.0682C516.595 84.0829 518.723 84.3217 521.17 84.3884C522.915 84.4341 523.93 84.894 525.503 85.2943C527.075 85.6946 528.928 85.0345 530.402 85.6701C534.25 87.3204 536.8 82.3308 532.71 80.9824C530.734 80.3293 527.342 80.3223 525.503 81.4003C525.166 81.5969 524.874 82.0639 524.558 82.2079C524.468 82.387 524.377 82.559 524.291 82.7486L520.768 82.5555C520.107 82.1131 519.671 79.0899 519.343 78.5035C517.663 75.5048 514.144 72.6291 511.306 70.4275C508.752 68.4401 506.124 65.8628 502.42 66.0068C502.192 66.0088 501.971 66.0734 501.79 66.1911C501.609 66.3087 501.477 66.4731 501.414 66.6598" fill="#F5D6C1"/>
<path d="M546.565 83.5232C547.472 83.2043 548.217 82.5997 548.66 81.823C549.104 81.0464 549.215 80.1513 548.974 79.3061C549.695 80.3868 551.55 80.2077 552.728 79.5203C553.905 78.8329 554.847 77.7746 556.167 77.375C557.488 76.9753 558.926 77.2791 560.303 77.4869C561.68 77.6947 563.254 77.7011 564.271 76.8475C565.288 75.9938 564.988 74.0499 563.6 73.9348C566.397 72.17 565.548 67.5149 562.269 66.6389C563.675 66.7891 564.745 65.3376 564.599 64.0811C564.453 62.8246 563.5 61.7663 562.59 60.8071L556.956 54.822C554.519 52.2355 550.697 49.39 547.44 51.1068C552.431 54.8519 556.274 59.6762 558.604 65.1233C558.935 65.8751 559.12 66.6721 559.15 67.4797C559.261 71.3259 555.761 72.3075 552.695 72.9725C543.87 74.8929 534.993 76.5672 526.063 77.9952C525.017 78.1615 523.932 78.3246 522.905 78.088C521.467 77.7555 520.393 76.71 519.408 75.7125L506.641 62.7734C504.125 60.2253 501.421 56.9513 502.909 53.719C503.142 53.177 503.562 52.7157 504.108 52.4017C506.402 51.1325 508.878 53.5815 511.126 54.9115C515.943 57.7602 523.736 55.8675 527.005 60.1325C528.136 61.6064 528.403 63.5471 530.105 64.6917C530.451 64.9409 530.863 65.1047 531.302 65.167C531.74 65.2292 532.188 65.1877 532.603 65.0466C533.795 64.5926 533.93 63.5503 533.766 62.6391C533.181 59.2917 529.099 56.4142 530.327 53.217C532.307 53.9492 533.12 56.0529 533.456 57.9489C533.856 60.2061 533.991 62.7063 536.282 64.1322C536.844 64.5042 537.536 64.6835 538.233 64.6378C538.93 64.592 539.586 64.3243 540.082 63.8829C541.01 62.9909 540.731 61.907 540.439 60.9159C539.444 57.5354 538.353 54.1805 537.163 50.8511L543.325 61.1429C543.786 61.9134 544.321 62.7478 545.42 62.8501C546.519 62.9524 547.497 62.2555 547.853 61.3219C548.439 59.8704 547.761 58.3901 547.047 57.0473C543.493 50.2213 538.755 43.229 531.022 40.278C525.724 38.2573 520.454 37.7936 514.705 38.0749C513.299 38.1431 511.883 38.2156 510.456 38.2923C506.106 38.5282 496.291 39.1 491.827 39.5C487.363 39.9 470.25 41.3333 462.252 42L455.556 43M512.596 79.6866C511.426 78.2223 511.351 76.3008 511.319 74.5007L501.539 64.2505C499.979 64.2793 498.934 65.8811 499.098 67.2719C499.262 68.6626 500.247 69.852 501.196 70.9614L513.635 85.4671M512.473 84.2554C514.633 87.3406 517.458 86.9121 520.608 86.9852C525.891 87.128 531.645 86.2114 536.836 85.3247C540.452 84.707 543.61 84.1225 547.07 83" stroke="#763E2E" stroke-linecap="round" stroke-linejoin="round"/>
<path d="M682.827 0C674.074 0.847706 668.304 -0.316217 651.963 1.17081C641.069 2.16216 632.592 2.26459 626.532 1.47811C620.394 0.513894 612.137 0.392571 600.977 1.11177C584.236 2.19056 578.413 0.849243 569.444 1.4793M569.444 103C578.197 102.152 583.967 103.316 600.308 101.829C611.202 100.838 619.679 100.735 625.739 101.522C631.877 102.486 640.134 102.607 651.294 101.888C668.035 100.809 673.858 102.151 682.827 101.521M682.895 101.5C683.832 90.8211 683.078 74.2737 682.379 54.8579C681.33 25.7341 683.46 15.6113 682.848 0.00719245" stroke="#852E2C" stroke-width="1.39378" stroke-linecap="round"/>
<path d="M796.716 0C787.963 0.847706 782.193 -0.316217 765.852 1.17081C754.958 2.16216 746.481 2.26459 740.421 1.47811C734.282 0.513894 726.026 0.392571 714.865 1.11177C698.125 2.19056 692.302 0.849243 683.333 1.4793M683.333 103C692.085 102.152 697.855 103.316 714.196 101.829C725.09 100.838 733.567 100.735 739.628 101.522C745.766 102.486 754.023 102.607 765.183 101.888C781.924 100.809 787.746 102.151 796.716 101.521M796.784 101.5C797.721 90.8211 796.967 74.2737 796.268 54.8579C795.219 25.7341 797.349 15.6113 796.737 0.00719245" stroke="#852E2C" stroke-width="1.39378" stroke-linecap="round"/>
<path d="M910.605 0C901.853 0.847706 896.082 -0.316217 879.742 1.17081C868.848 2.16216 860.371 2.26459 854.31 1.47811C848.172 0.513894 839.915 0.392571 828.755 1.11177C812.014 2.19056 806.192 0.849243 797.222 1.4793M797.222 103C805.975 102.152 811.745 103.316 828.086 101.829C838.98 100.838 847.457 100.735 853.517 101.522C859.656 102.486 867.912 102.607 879.073 101.888C895.813 100.809 901.636 102.151 910.605 101.521M910.673 101.5C911.61 90.8211 910.856 74.2737 910.157 54.8579C909.109 25.7341 911.239 15.6113 910.626 0.00719245" stroke="#852E2C" stroke-width="1.39378" stroke-linecap="round"/>
<path d="M1024.49 0C1015.74 0.847706 1009.97 -0.316217 993.63 1.17081C982.736 2.16216 974.259 2.26459 968.199 1.47811C962.061 0.513894 953.804 0.392571 942.644 1.11177C925.903 2.19056 920.08 0.849243 911.111 1.4793M911.111 103C919.864 102.152 925.634 103.316 941.975 101.829C952.869 100.838 961.346 100.735 967.406 101.522C973.544 102.486 981.801 102.607 992.961 101.888C1009.7 100.809 1015.52 102.151 1024.49 101.521M1024.56 101.5C1025.5 90.8211 1024.74 74.2737 1024.05 54.8579C1023 25.7341 1025.13 15.6113 1024.51 0.00719245" stroke="#852E2C" stroke-width="1.39378" stroke-linecap="round"/>
</svg>
