<svg width="1025" height="104" viewBox="0 0 1025 104" fill="none" xmlns="http://www.w3.org/2000/svg">
<path d="M2.63796e-06 0C8.79169 0.847706 14.5875 -0.316217 31.0014 1.17081C41.944 2.16216 50.4589 2.26459 56.5461 1.47811C62.7118 0.513894 71.0055 0.392571 82.2156 1.11177C99.0308 2.19056 104.88 0.369945 113.889 1M113.889 103C105.097 102.152 99.3013 103.316 82.8875 101.829C71.9449 100.838 63.43 100.735 57.3428 101.522C51.1771 102.486 42.8834 102.607 31.6733 101.888C14.8581 100.809 9.00934 102.151 0 101.521M0.808844 100C-0.132587 89.3211 -0.252203 74.2737 0.449998 54.8579C1.5033 25.7341 0.193675 15.6041 0.808841 2.90307e-06" stroke="#852E2C" stroke-width="1.39378" stroke-linecap="round"/>
<path d="M171.231 0.827696L171.142 1.51884L171.133 1.51765L171.124 1.51622L171.231 0.827696ZM196.776 0.520395L196.839 1.21444L196.776 0.520395ZM227.71 0.806325C228.094 0.769386 228.434 1.05001 228.471 1.43312C228.508 1.81622 228.227 2.15674 227.844 2.19367L227.71 0.806325ZM145.562 0.461354L145.606 1.15682L145.562 0.461354ZM113.937 1.52408C113.553 1.55093 113.22 1.26145 113.193 0.877501C113.166 0.493556 113.456 0.160541 113.84 0.13369L113.937 1.52408ZM170.435 100.871L170.524 100.18L170.533 100.182L170.542 100.183L170.435 100.871ZM144.89 101.179L144.827 100.485L144.89 101.179ZM113.955 103.694C113.572 103.731 113.232 103.45 113.195 103.067C113.158 102.684 113.438 102.343 113.822 102.306L113.955 103.694ZM196.104 101.238L196.059 100.542L196.059 100.542L196.104 101.238ZM227.287 102.305C227.671 102.278 228.004 102.567 228.031 102.951C228.058 103.335 227.769 103.668 227.385 103.695L227.287 102.305ZM114.709 102.469C114.643 102.849 114.282 103.102 113.903 103.036C113.524 102.97 113.27 102.609 113.336 102.23L114.709 102.469ZM114.741 56.756L115.436 56.7063L114.741 56.756ZM113.328 1.40383L113.274 0.709048L114.663 0.600571L114.718 1.29535L113.328 1.40383ZM171.321 0.136549C177.333 0.913314 185.788 0.816098 196.713 -0.173655L196.839 1.21444C185.879 2.20739 177.304 2.31504 171.142 1.51884L171.321 0.136549ZM196.713 -0.173655C204.982 -0.92279 210.585 -0.462104 215.216 0.0782571C219.856 0.619783 223.408 1.22116 227.71 0.806325L227.844 2.19367C223.355 2.62655 219.613 1.99461 215.054 1.46265C210.486 0.929523 204.984 0.476554 196.839 1.21444L196.713 -0.173655ZM171.124 1.51622C165.033 0.563742 156.799 0.438753 145.606 1.15682L145.517 -0.234108C156.745 -0.954439 165.098 -0.836783 171.339 0.139173L171.124 1.51622ZM145.606 1.15682C137.172 1.69795 131.484 1.63213 126.78 1.51005C122.073 1.38789 118.4 1.21198 113.937 1.52408L113.84 0.13369C118.386 -0.184266 122.143 -0.00454379 126.816 0.116739C131.493 0.238112 137.137 0.30355 145.517 -0.234108L145.606 1.15682ZM170.345 101.563C164.333 100.786 155.878 100.883 144.953 101.873L144.827 100.485C155.787 99.4918 164.361 99.3841 170.524 100.18L170.345 101.563ZM144.953 101.873C136.729 102.618 131.163 102.862 126.556 103.026C121.946 103.189 118.325 103.272 113.955 103.694L113.822 102.306C118.244 101.88 121.916 101.796 126.506 101.633C131.098 101.469 136.637 101.227 144.827 100.485L144.953 101.873ZM170.542 100.183C176.633 101.135 184.867 101.26 196.059 100.542L196.149 101.933C184.921 102.654 176.568 102.536 170.327 101.56L170.542 100.183ZM196.059 100.542C204.528 99.999 210.134 100.602 214.746 101.261C219.365 101.921 222.876 102.613 227.287 102.305L227.385 103.695C222.787 104.017 219.089 103.289 214.549 102.641C210.001 101.991 204.495 101.398 196.149 101.933L196.059 100.542ZM113.336 102.23C115.205 91.5277 115.449 76.3964 114.045 56.8058L115.436 56.7063C116.842 76.3357 116.607 91.6002 114.709 102.469L113.336 102.23ZM114.045 56.8058C112.99 42.068 113.118 32.1319 113.357 23.912C113.595 15.6884 113.94 9.23718 113.328 1.40383L114.718 1.29535C115.337 9.22213 114.987 15.7666 114.75 23.9524C114.513 32.142 114.385 42.029 115.436 56.7063L114.045 56.8058Z" fill="#852E2C"/>
<path d="M284.865 1.47811L284.775 2.16921L284.766 2.16801L284.757 2.16656L284.865 1.47811ZM310.296 1.17081L310.359 1.86483L310.359 1.86483L310.296 1.17081ZM341.093 -0.693646C341.476 -0.730749 341.817 -0.450271 341.854 -0.0671807C341.891 0.31591 341.61 0.656543 341.227 0.693646L341.093 -0.693646ZM259.31 1.11177L259.354 1.80722L259.354 1.80722L259.31 1.11177ZM227.826 2.17448C227.442 2.20145 227.109 1.91207 227.082 1.52813C227.055 1.14419 227.344 0.811089 227.728 0.784119L227.826 2.17448ZM284.072 101.522L284.162 100.831L284.171 100.832L284.18 100.833L284.072 101.522ZM258.641 101.829L258.578 101.135L258.578 101.135L258.641 101.829ZM227.844 103.694C227.461 103.731 227.121 103.45 227.083 103.067C227.046 102.684 227.327 102.343 227.71 102.306L227.844 103.694ZM309.627 101.888L309.583 101.193L309.627 101.888ZM341.111 100.825C341.495 100.799 341.828 101.088 341.855 101.472C341.882 101.856 341.593 102.189 341.209 102.216L341.111 100.825ZM228.598 103.119C228.532 103.499 228.171 103.753 227.792 103.687C227.413 103.621 227.159 103.26 227.224 102.881L228.598 103.119ZM228.625 57.4065L229.321 57.3569L229.321 57.3569L228.625 57.4065ZM227.216 2.054L227.162 1.3592L228.552 1.25121L228.606 1.946L227.216 2.054ZM341.922 101.561C341.889 101.944 341.55 102.228 341.167 102.194C340.784 102.161 340.5 101.822 340.534 101.439L341.922 101.561ZM340.712 54.8579L341.408 54.8328L340.712 54.8579ZM340.485 0.0345232C340.47 -0.350064 340.769 -0.674069 341.154 -0.689163C341.538 -0.704258 341.862 -0.404725 341.877 -0.0201383L340.485 0.0345232ZM284.955 0.787014C290.939 1.56369 299.357 1.46652 310.233 0.476785L310.359 1.86483C299.448 2.8578 290.911 2.96549 284.775 2.16921L284.955 0.787014ZM310.233 0.476785C318.431 -0.26921 323.981 -0.350369 328.574 -0.351233C333.17 -0.352097 336.759 -0.273867 341.093 -0.693646L341.227 0.693646C336.809 1.12157 333.136 1.04169 328.574 1.04255C324.008 1.04341 318.503 1.1238 310.359 1.86483L310.233 0.476785ZM284.757 2.16656C278.694 1.21419 270.497 1.08916 259.354 1.80722L259.265 0.416319C270.443 -0.304022 278.76 -0.186399 284.973 0.78966L284.757 2.16656ZM259.354 1.80722C250.957 2.34837 245.294 2.28254 240.611 2.16047C235.925 2.0383 232.269 1.8624 227.826 2.17448L227.728 0.784119C232.255 0.466137 235.995 0.645876 240.647 0.767156C245.303 0.888525 250.922 0.953961 259.265 0.416319L259.354 1.80722ZM283.982 102.213C277.998 101.436 269.58 101.533 258.704 102.523L258.578 101.135C269.489 100.142 278.026 100.034 284.162 100.831L283.982 102.213ZM258.704 102.523C250.506 103.269 244.956 103.35 240.363 103.351C235.767 103.352 232.179 103.274 227.844 103.694L227.71 102.306C232.128 101.878 235.801 101.958 240.363 101.957C244.929 101.957 250.434 101.876 258.578 101.135L258.704 102.523ZM284.18 100.833C290.243 101.786 298.44 101.911 309.583 101.193L309.672 102.584C298.494 103.304 290.178 103.186 283.964 102.21L284.18 100.833ZM309.583 101.193C317.98 100.652 323.643 100.717 328.326 100.84C333.013 100.962 336.669 101.138 341.111 100.825L341.209 102.216C336.682 102.534 332.942 102.354 328.29 102.233C323.634 102.111 318.015 102.046 309.672 102.584L309.583 101.193ZM227.224 102.881C229.084 92.1782 229.327 77.0467 227.93 57.456L229.321 57.3569C230.72 76.9863 230.487 92.2504 228.598 103.119L227.224 102.881ZM227.93 57.456C226.88 42.7184 227.007 32.7823 227.245 24.5625C227.482 16.339 227.825 9.88756 227.216 2.054L228.606 1.946C229.222 9.87258 228.874 16.4169 228.638 24.6027C228.402 32.7924 228.274 42.6795 229.321 57.3569L227.93 57.456ZM340.534 101.439C341.466 90.8155 340.716 74.3286 340.016 54.883L341.408 54.8328C342.106 74.2189 342.864 90.8267 341.922 101.561L340.534 101.439ZM340.016 54.883C339.49 40.2982 339.761 30.468 340.087 22.3348C340.412 14.1985 340.789 7.80176 340.485 0.0345232L341.877 -0.0201383C342.185 7.81673 341.804 14.2835 341.479 22.3905C341.155 30.5006 340.885 40.2937 341.408 54.8328L340.016 54.883Z" fill="#852E2C"/>
<path d="M279.174 24.6629C280.622 27.0598 283.136 28.4921 285.65 29.5346C293.372 32.7158 303.608 33.0763 310.147 27.0988C310.756 26.6321 311.19 25.9709 311.378 25.2232C311.552 24.0978 310.664 23.0309 309.611 22.6168C308.559 22.2027 307.392 22.2953 306.267 22.3878C296.185 23.2355 286.085 24.3365 275.984 24.9357C275.364 24.9421 274.754 25.0834 274.193 25.3498C273.185 25.9101 272.746 27.1572 272.427 28.3118C271.751 30.8274 271.321 33.4039 271.143 36.0042C270.998 38.7954 270.998 41.5923 271.143 44.3835C271.553 55.7978 269.826 75.0751 281.761 80.9211C289.965 84.9548 300.201 85.1497 308.506 80.7652C316.093 76.7655 319.239 68.586 320.509 60.2651C320.859 56.3303 321.561 44.913 321.561 30.7233C321.43 29.6223 321.199 28.3849 320.301 27.8003C318.438 26.5677 315.736 29.559 314.153 30.4748C311.922 31.7729 309.57 32.845 307.131 33.6755C297.961 36.8129 283.575 37.7385 276.244 29.8318C274.546 27.9952 273.243 25.6567 271.081 24.4729C266.79 21.2287 255.35 17.3523 243.922 27.8003C232.494 38.2482 229.258 54.4481 229.576 61.5" stroke="#763E2E" stroke-width="1.5" stroke-linecap="round" stroke-linejoin="round"/>
<path d="M455.05 0C446.297 0.847706 440.527 -0.316217 424.186 1.17081C413.292 2.16216 404.815 2.26459 398.755 1.47811C392.616 0.513894 384.36 0.392571 373.199 1.11177C356.459 2.19056 350.636 0.849243 341.667 1.4793M341.667 103C350.419 102.152 356.189 103.316 372.53 101.829C383.424 100.838 391.901 100.735 397.962 101.522C404.1 102.486 412.357 102.607 423.517 101.888C440.257 100.809 446.08 102.151 455.05 101.521M455.118 101.5C456.055 90.8211 455.301 74.2737 454.602 54.8579C453.553 25.7341 455.683 15.6113 455.071 0.00719245" stroke="#852E2C" stroke-width="1.39378" stroke-linecap="round"/>
<path d="M568.938 0C560.186 0.847706 554.415 -0.316217 538.075 1.17081C527.181 2.16216 518.704 2.26459 512.643 1.47811C506.505 0.513894 498.248 0.392571 487.088 1.11177C470.347 2.19056 464.525 0.849243 455.555 1.4793M455.555 103C464.308 102.152 470.078 103.316 486.419 101.829C497.313 100.838 505.79 100.735 511.85 101.522C517.989 102.486 526.245 102.607 537.406 101.888C554.146 100.809 559.969 102.151 568.938 101.521M569.006 101.5C569.943 90.8211 569.189 74.2737 568.49 54.8579C567.442 25.7341 569.572 15.6113 568.959 0.00719245" stroke="#852E2C" stroke-width="1.39378" stroke-linecap="round"/>
<path d="M682.827 0C674.074 0.847706 668.304 -0.316217 651.963 1.17081C641.069 2.16216 632.592 2.26459 626.532 1.47811C620.394 0.513894 612.137 0.392571 600.977 1.11177C584.236 2.19056 578.413 0.849243 569.444 1.4793M569.444 103C578.197 102.152 583.967 103.316 600.308 101.829C611.202 100.838 619.679 100.735 625.739 101.522C631.877 102.486 640.134 102.607 651.294 101.888C668.035 100.809 673.858 102.151 682.827 101.521M682.895 101.5C683.832 90.8211 683.078 74.2737 682.379 54.8579C681.33 25.7341 683.46 15.6113 682.848 0.00719245" stroke="#852E2C" stroke-width="1.39378" stroke-linecap="round"/>
<path d="M796.716 0C787.963 0.847706 782.193 -0.316217 765.852 1.17081C754.958 2.16216 746.481 2.26459 740.421 1.47811C734.282 0.513894 726.026 0.392571 714.865 1.11177C698.125 2.19056 692.302 0.849243 683.333 1.4793M683.333 103C692.085 102.152 697.855 103.316 714.196 101.829C725.09 100.838 733.567 100.735 739.628 101.522C745.766 102.486 754.023 102.607 765.183 101.888C781.924 100.809 787.746 102.151 796.716 101.521M796.784 101.5C797.721 90.8211 796.967 74.2737 796.268 54.8579C795.219 25.7341 797.349 15.6113 796.737 0.00719245" stroke="#852E2C" stroke-width="1.39378" stroke-linecap="round"/>
<path d="M910.605 0C901.853 0.847706 896.082 -0.316217 879.742 1.17081C868.848 2.16216 860.371 2.26459 854.31 1.47811C848.172 0.513894 839.915 0.392571 828.755 1.11177C812.014 2.19056 806.192 0.849243 797.222 1.4793M797.222 103C805.975 102.152 811.745 103.316 828.086 101.829C838.98 100.838 847.457 100.735 853.517 101.522C859.656 102.486 867.912 102.607 879.073 101.888C895.813 100.809 901.636 102.151 910.605 101.521M910.673 101.5C911.61 90.8211 910.856 74.2737 910.157 54.8579C909.109 25.7341 911.239 15.6113 910.626 0.00719245" stroke="#852E2C" stroke-width="1.39378" stroke-linecap="round"/>
<path fill-rule="evenodd" clip-rule="evenodd" d="M896.176 60.62C896.518 60.4367 898.894 59.7372 898.894 62.3726C898.894 65.0081 897.615 64.7798 896.847 64.8866C896.078 64.9931 894.324 64.4319 894.989 62.9144C895 62.8896 895.011 62.8651 895.022 62.8409C895.661 61.3777 895.841 60.8003 896.176 60.62Z" fill="#852E2C"/>
<path fill-rule="evenodd" clip-rule="evenodd" d="M837.306 23.2705C836.52 24.2292 835.426 27.2621 838.417 26.9993C841.408 26.7365 846.594 26.9993 846.594 24.8128C846.594 22.6263 846.833 22 845.616 22C844.399 22 838.092 22.3119 837.306 23.2705Z" fill="#D6A285"/>
<path fill-rule="evenodd" clip-rule="evenodd" d="M842.33 62.0859C841.077 62.4968 839.098 66.4328 841.785 67.0946C844.473 67.7563 844.884 63.4738 845.023 62.7679C845.162 62.0623 843.583 61.675 842.33 62.0859Z" fill="#FEAE76"/>
<path d="M828.583 61.8099C831.676 59.4181 833.712 55.3884 833.672 50.8096C833.601 42.626 833.53 34.4417 833.458 26.2573C833.452 25.5289 833.466 24.7323 833.88 24.172C834.31 23.5915 835.034 23.4444 835.695 23.3349C839.517 22.7048 843.339 22.0747 847.159 21.4439C848.107 21.2879 849.28 21.2406 849.789 22.1543C850.061 22.6456 850.04 23.2689 850.009 23.8487L849.296 53.4215C838.751 52.6579 835.64 74.9087 837.092 78.6097C838.544 82.3101 830.043 70.2705 815.601 78.6097C811.185 80.7398 801.371 85.4 797.445 87" stroke="#852E2C" stroke-width="0.721942" stroke-linecap="round" stroke-linejoin="round"/>
<path d="M843.064 73.3381C842.423 78.7017 846.672 76.8199 846.672 76.8199C853.613 74.9721 853.696 69.4914 853.696 69.4914C855.78 52.7916 856.798 35.9304 856.739 19.082C856.737 18.2539 856.716 17.3712 856.304 16.6902C855.726 15.7354 854.587 15.4961 853.567 15.3694C846.037 14.4326 838.326 15.2839 831.077 17.8519C830.383 18.0979 829.661 18.3837 829.177 18.998C828.892 19.361 828.718 19.802 828.605 20.2715C828.196 21.965 828.076 23.7283 828.093 25.4804C828.236 39.6452 828.377 53.8101 828.519 67.9749C828.534 69.4579 828.607 71.103 829.536 72.1428C830.275 72.9703 831.376 73.1982 832.412 73.3381C836.637 73.909 840.953 73.6593 845.115 72.6034C846.025 72.3722 846.964 72.0821 847.674 71.3926C852.275 66.9191 842.298 58.9514 840.433 65.3663C840.23 66.0611 840.347 66.8419 840.841 67.3627C841.742 68.316 843.077 67.7169 843.705 66.7841C844.224 66.013 844.401 65.065 844.673 64.1725C845.573 61.215 847.704 58.6875 850.379 57.2429C853.746 55.4241 856.232 57.0472 858.754 59.6077C865.219 66.1694 869.302 56.1036 868.221 51.2893C867.712 49.022 892.463 47.5339 889.744 49.625C887.85 51.0818 886.554 63.14 894.651 61.0022C897.546 60.238 897.795 65.3663 895.126 65.3663C892.456 65.3663 892.915 63.4835 893.831 61.644C897.544 54.1901 920.527 44.9068 919.628 57.2429" stroke="#852E2C" stroke-width="0.721942" stroke-linecap="round" stroke-linejoin="round"/>
<path d="M837.149 23.8748C837.149 23.8748 835.859 26.9979 837.788 26.9979C839.716 26.9979 844.724 26.5187 845.971 25.4501C847.218 24.3816 845.971 22.625 845.971 22.625" stroke="#852E2C" stroke-width="0.721942" stroke-linecap="round"/>
<path d="M1024.49 0C1015.74 0.847706 1009.97 -0.316217 993.63 1.17081C982.736 2.16216 974.259 2.26459 968.199 1.47811C962.061 0.513894 953.804 0.392571 942.644 1.11177C925.903 2.19056 920.08 0.849243 911.111 1.4793M911.111 103C919.864 102.152 925.634 103.316 941.975 101.829C952.869 100.838 961.346 100.735 967.406 101.522C973.544 102.486 981.801 102.607 992.961 101.888C1009.7 100.809 1015.52 102.151 1024.49 101.521M1024.56 101.5C1025.5 90.8211 1024.74 74.2737 1024.05 54.8579C1023 25.7341 1025.13 15.6113 1024.51 0.00719245" stroke="#852E2C" stroke-width="1.39378" stroke-linecap="round"/>
</svg>
