<svg version="1.1" xmlns="http://www.w3.org/2000/svg" xmlns:xlink="http://www.w3.org/1999/xlink" width="1024px" height="1024px" viewBox="0,0,256,256"><g fill="#8e3737" fill-rule="nonzero" stroke="none" stroke-width="1" stroke-linecap="butt" stroke-linejoin="miter" stroke-miterlimit="10" stroke-dasharray="" stroke-dashoffset="0" font-family="none" font-weight="none" font-size="none" text-anchor="none" style="mix-blend-mode: normal"><g transform="translate(0,-0.02659) scale(0.25,0.25)"><path d="M371.62667,328.96l97.70667,-98.13333v409.17333c0,23.56415 19.10252,42.66667 42.66667,42.66667c23.56415,0 42.66667,-19.10252 42.66667,-42.66667v-409.17333l97.70667,98.13333c8.01137,8.07734 18.9168,12.62073 30.29333,12.62073c11.37653,0 22.28196,-4.54339 30.29333,-12.62073c8.07734,-8.01137 12.62073,-18.9168 12.62073,-30.29333c0,-11.37653 -4.54339,-22.28196 -12.62073,-30.29333l-170.66667,-170.66667c-4.05776,-3.8844 -8.84261,-6.92931 -14.08,-8.96c-10.38768,-4.26744 -22.03898,-4.26744 -32.42667,0c-5.23739,2.03069 -10.02224,5.0756 -14.08,8.96l-170.66667,170.66667c-16.73055,16.73055 -16.73055,43.85612 0,60.58667c16.73055,16.73055 43.85612,16.73055 60.58667,0zM896,512c-23.56415,0 -42.66667,19.10252 -42.66667,42.66667v256c0,23.56415 -19.10252,42.66667 -42.66667,42.66667h-597.33333c-23.56415,0 -42.66667,-19.10252 -42.66667,-42.66667v-256c0,-23.56415 -19.10252,-42.66667 -42.66667,-42.66667c-23.56415,0 -42.66667,19.10252 -42.66667,42.66667v256c0,70.69245 57.30755,128 128,128h597.33333c70.69245,0 128,-57.30755 128,-128v-256c0,-23.56415 -19.10252,-42.66667 -42.66667,-42.66667z"></path></g></g></svg>