<svg width="151" height="23" viewBox="0 0 151 23" fill="none" xmlns="http://www.w3.org/2000/svg">
<path d="M47.7567 16.5078C47.824 16.8501 47.9786 17.1924 48.2206 17.5347C48.4626 17.8633 48.5836 18.1166 48.5836 18.2946V18.3768C48.5836 18.6369 48.4223 18.767 48.0996 18.767H43.9046C43.5819 18.767 43.4206 18.6369 43.4206 18.3768V18.2946C43.4206 18.1577 43.5551 17.9181 43.824 17.5758C44.0929 17.2198 44.1937 16.8638 44.1265 16.5078L42.9164 9.33995L39.8307 18.1509C39.6962 18.5479 39.4542 18.7465 39.1046 18.7465C38.7147 18.7465 38.4324 18.5548 38.2576 18.1714L34.7282 9.01134L33.6391 16.5078C33.5853 16.8638 33.6929 17.2129 33.9618 17.5553C34.2307 17.8976 34.3651 18.144 34.3651 18.2946V18.3768C34.3651 18.6369 34.2038 18.767 33.8811 18.767H31.3803C31.0576 18.767 30.8962 18.6369 30.8962 18.3768V18.2946C30.8962 18.1166 31.0173 17.8633 31.2593 17.5347C31.5147 17.1924 31.6694 16.8501 31.7231 16.5078L33.2559 6.44405C33.3097 6.08806 33.1887 5.73891 32.8929 5.3966C32.6105 5.0543 32.4694 4.80784 32.4694 4.65722V4.57507C32.4694 4.31492 32.624 4.18484 32.9332 4.18484H35.5954C36.1467 4.18484 36.5097 4.4313 36.6845 4.92422L39.6088 13.6324L42.4324 4.9653C42.6206 4.445 42.9702 4.18484 43.4811 4.18484H46.224C46.5332 4.18484 46.6878 4.31492 46.6878 4.57507V4.65722C46.6878 4.79415 46.5399 5.04061 46.2441 5.3966C45.9483 5.7526 45.834 6.11544 45.9013 6.48513L47.7567 16.5078Z" fill="white"/>
<path d="M50.1036 18.767C49.7809 18.767 49.6196 18.6369 49.6196 18.3768V18.2946C49.6196 18.1303 49.754 17.8839 50.023 17.5553C50.2919 17.2129 50.4263 16.8638 50.4263 16.5078V6.44405C50.4263 6.08806 50.2919 5.74575 50.023 5.41714C49.754 5.07484 49.6196 4.82153 49.6196 4.65722V4.57507C49.6196 4.31492 49.7742 4.18484 50.0835 4.18484H59.3204C59.5356 4.18484 59.6902 4.23277 59.7843 4.32861C59.8919 4.42446 59.9658 4.58876 60.0061 4.82153L60.4902 7.40935C60.5171 7.58735 60.4834 7.73112 60.3893 7.84065C60.2952 7.95019 60.1608 8.00496 59.986 8.00496H59.8851C59.6297 8.00496 59.3675 7.88173 59.0986 7.63527C58.8431 7.37512 58.6145 7.10128 58.4129 6.81374C58.2246 6.51251 57.9759 6.23867 57.6666 5.99221C57.3708 5.73206 57.0616 5.60198 56.7389 5.60198H54.9641C54.3591 5.60198 54.0566 5.93744 54.0566 6.60836V10.6339H56.1742C56.4162 10.6339 56.6314 10.5517 56.8196 10.3874C57.0078 10.2094 57.149 10.0177 57.2431 9.81233C57.3372 9.60695 57.4448 9.4221 57.5658 9.25779C57.7003 9.0798 57.828 8.9908 57.949 8.9908H58.1103C58.3792 8.9908 58.5137 9.14826 58.5137 9.46318V13.1601C58.5137 13.475 58.3792 13.6324 58.1103 13.6324H57.949C57.828 13.6324 57.7003 13.5503 57.5658 13.386C57.4448 13.2217 57.3372 13.0437 57.2431 12.852C57.149 12.6603 57.0078 12.4823 56.8196 12.318C56.6314 12.1537 56.4162 12.0715 56.1742 12.0715H54.0566V15.8506C54.0566 16.2613 54.1507 16.6173 54.3389 16.9186C54.5272 17.2061 54.8364 17.3499 55.2667 17.3499H57.3843C57.707 17.3499 58.0028 17.2198 58.2717 16.9596C58.554 16.6858 58.7826 16.3914 58.9574 16.0765C59.1322 15.7616 59.3406 15.474 59.5826 15.2139C59.8381 14.94 60.1003 14.8031 60.3692 14.8031H60.5507C60.6986 14.8031 60.8129 14.8716 60.8935 15.0085C60.9742 15.1317 61.0011 15.2687 60.9742 15.4193L60.5305 18.1098C60.4902 18.3426 60.4162 18.5137 60.3087 18.6232C60.2145 18.7191 60.0532 18.767 59.8246 18.767H50.1036Z" fill="white"/>
<path d="M67.9941 18.9724C66.2328 18.9724 64.7739 18.589 63.6176 17.8222C62.4613 17.0555 61.8832 16.1929 61.8832 15.2344C61.8832 14.2623 62.3672 13.7762 63.3353 13.7762C63.7252 13.7762 64.0681 13.9131 64.3639 14.187C64.6597 14.4471 64.9084 14.7689 65.1101 15.1523C65.3118 15.522 65.5269 15.8985 65.7554 16.2819C65.984 16.6516 66.3 16.9665 66.7033 17.2266C67.1067 17.4868 67.584 17.6169 68.1353 17.6169C68.7269 17.6169 69.1907 17.4663 69.5269 17.165C69.8764 16.8638 70.0512 16.4462 70.0512 15.9122C70.0512 15.3782 69.9033 14.9332 69.6075 14.5772C69.3252 14.2075 68.9487 13.9268 68.4781 13.7351C68.021 13.5298 67.5101 13.3518 66.9454 13.2011C66.3807 13.0368 65.8159 12.852 65.2512 12.6466C64.6865 12.4275 64.1689 12.1674 63.6983 11.8662C63.2412 11.5512 62.8647 11.1062 62.5689 10.5312C62.2731 9.9424 62.1252 9.2441 62.1252 8.43626C62.1252 7.12182 62.6227 6.05383 63.6176 5.2323C64.6126 4.41076 65.937 4 67.5907 4C69.2176 4 70.5891 4.37653 71.705 5.1296C72.8344 5.86898 73.3924 6.7179 73.379 7.67635C73.379 8.14188 73.2445 8.51157 72.9756 8.78541C72.7201 9.04557 72.3437 9.17564 71.8462 9.17564C71.4025 9.17564 71.026 9.04557 70.7168 8.78541C70.4075 8.51157 70.1588 8.1898 69.9706 7.82012C69.7958 7.45043 69.6143 7.08074 69.426 6.71105C69.2512 6.32767 69.0025 6.0059 68.6798 5.74575C68.3706 5.47191 67.9874 5.33499 67.5302 5.33499C66.9252 5.33499 66.4613 5.50614 66.1386 5.84844C65.8159 6.17706 65.6546 6.60836 65.6546 7.14235C65.6546 7.73112 65.7958 8.23088 66.0781 8.64165C66.3739 9.03872 66.7504 9.34679 67.2075 9.56587C67.6781 9.78494 68.1958 9.98348 68.7605 10.1615C69.3252 10.3258 69.8832 10.5106 70.4344 10.716C70.9991 10.9214 71.5101 11.1747 71.9672 11.4759C72.4378 11.7635 72.8143 12.1811 73.0966 12.7288C73.3924 13.2764 73.5403 13.9405 73.5403 14.721C73.5403 16.0217 73.0025 17.0555 71.9269 17.8222C70.8647 18.589 69.5538 18.9724 67.9941 18.9724Z" fill="white"/>
<path d="M87.3512 16.5283C87.4991 16.898 87.7276 17.2403 88.0369 17.5553C88.3596 17.8565 88.5209 18.1029 88.5209 18.2946V18.3768C88.5209 18.6369 88.3596 18.767 88.0369 18.767H82.8134C82.5041 18.767 82.3495 18.6369 82.3495 18.3768V18.2946C82.3495 18.144 82.4436 17.9866 82.6318 17.8222C82.8335 17.6442 83.0016 17.4526 83.136 17.2472C83.2839 17.0418 83.3108 16.8022 83.2167 16.5283L82.773 15.255H77.6503L77.2066 16.5283C77.1125 16.8022 77.1327 17.0418 77.2671 17.2472C77.415 17.4526 77.5831 17.6442 77.7713 17.8222C77.973 17.9866 78.0739 18.144 78.0739 18.2946V18.3768C78.0739 18.6369 77.9125 18.767 77.5898 18.767H74.605C74.2823 18.767 74.1209 18.6369 74.1209 18.3768V18.2946C74.1209 18.1166 74.2756 17.8702 74.5848 17.5553C74.9075 17.2403 75.1428 16.898 75.2907 16.5283L79.0621 6.58782C79.1562 6.35505 79.136 6.11544 79.0016 5.86898C78.8806 5.62252 78.7327 5.38976 78.5579 5.17068C78.3966 4.95161 78.3159 4.78045 78.3159 4.65722V4.57507C78.3159 4.31492 78.4705 4.18484 78.7797 4.18484H81.3613C82.0201 4.18484 82.4839 4.51346 82.7529 5.17068L87.3512 16.5283ZM78.1949 13.7146H82.2285L80.2117 7.98442L78.1949 13.7146Z" fill="white"/>
<path d="M102.161 10.9214C103.318 11.0857 104.232 11.5033 104.904 12.1742C105.577 12.8451 105.913 13.6735 105.913 14.6594C105.913 15.919 105.348 16.9186 104.219 17.6579C103.089 18.3973 101.402 18.767 99.1564 18.767H93.6304C93.3077 18.767 93.1463 18.6369 93.1463 18.3768V18.2946C93.1463 18.1303 93.2808 17.8839 93.5497 17.5553C93.8186 17.2129 93.953 16.8706 93.953 16.5283V6.42351C93.953 6.08121 93.8186 5.74575 93.5497 5.41714C93.2808 5.07484 93.1463 4.82153 93.1463 4.65722V4.57507C93.1463 4.31492 93.3077 4.18484 93.6304 4.18484H99.2169C100.951 4.18484 102.262 4.52715 103.15 5.21176C104.051 5.89637 104.501 6.78636 104.501 7.88173C104.501 8.64849 104.286 9.29887 103.856 9.83286C103.439 10.3669 102.874 10.7297 102.161 10.9214ZM97.5833 6.69051V9.27833C97.5833 9.60695 97.6841 9.8671 97.8858 10.0588C98.0875 10.2505 98.3497 10.3463 98.6724 10.3463H99.6808C100.192 10.3463 100.602 10.1752 100.911 9.83286C101.22 9.47687 101.375 9.00449 101.375 8.41573C101.375 7.53943 101.166 6.85482 100.75 6.3619C100.346 5.86898 99.7951 5.62252 99.0959 5.62252H98.5312C97.8993 5.62252 97.5833 5.97852 97.5833 6.69051ZM100.064 17.3293C100.696 17.3293 101.187 17.1376 101.536 16.7543C101.899 16.3572 102.081 15.8369 102.081 15.1934C102.081 14.3444 101.751 13.564 101.093 12.852C100.447 12.14 99.5598 11.784 98.4304 11.784H97.5833V15.5836C97.5833 16.0902 97.7178 16.5078 97.9867 16.8364C98.269 17.165 98.6387 17.3293 99.0959 17.3293H100.064Z" fill="white"/>
<path d="M107.169 18.3768V18.2946C107.169 18.1303 107.304 17.8839 107.573 17.5553C107.842 17.2129 107.976 16.8706 107.976 16.5283V6.42351C107.976 6.08121 107.842 5.74575 107.573 5.41714C107.304 5.07484 107.169 4.82153 107.169 4.65722V4.57507C107.169 4.31492 107.331 4.18484 107.653 4.18484H112.03C112.353 4.18484 112.514 4.31492 112.514 4.57507V4.65722C112.514 4.82153 112.366 5.07484 112.07 5.41714C111.774 5.74575 111.627 6.08121 111.627 6.42351V16.5283C111.627 16.8706 111.774 17.2129 112.07 17.5553C112.366 17.8839 112.514 18.1303 112.514 18.2946V18.3768C112.514 18.6369 112.353 18.767 112.03 18.767H107.653C107.331 18.767 107.169 18.6369 107.169 18.3768Z" fill="white"/>
<path d="M117.57 18.767C117.26 18.767 117.106 18.6369 117.106 18.3768V18.2946C117.106 18.1303 117.247 17.8839 117.529 17.5553C117.825 17.2129 117.973 16.8706 117.973 16.5283V5.72521H116.904C116.595 5.72521 116.313 5.85529 116.057 6.11544C115.815 6.37559 115.62 6.66313 115.472 6.97805C115.338 7.27927 115.17 7.55996 114.968 7.82012C114.766 8.08027 114.565 8.21034 114.363 8.21034H114.02C113.644 8.21034 113.476 8.01181 113.516 7.61473L113.919 4.82153C113.96 4.39707 114.188 4.18484 114.605 4.18484H124.971C125.375 4.18484 125.603 4.39707 125.657 4.82153L126.081 7.63527C126.107 7.81327 126.074 7.95704 125.98 8.06658C125.886 8.16242 125.751 8.21034 125.576 8.21034H125.234C125.032 8.21034 124.83 8.08027 124.628 7.82012C124.427 7.55996 124.252 7.27927 124.104 6.97805C123.956 6.66313 123.755 6.37559 123.499 6.11544C123.244 5.85529 122.961 5.72521 122.652 5.72521H121.603V16.5283C121.603 16.8706 121.744 17.2129 122.027 17.5553C122.323 17.8839 122.471 18.1303 122.471 18.2946V18.3768C122.471 18.6369 122.309 18.767 121.986 18.767H117.57Z" fill="white"/>
<path d="M127.565 18.767C127.243 18.767 127.081 18.6369 127.081 18.3768V18.2946C127.081 18.1303 127.216 17.8839 127.485 17.5553C127.754 17.2129 127.888 16.8638 127.888 16.5078V6.44405C127.888 6.08806 127.754 5.74575 127.485 5.41714C127.216 5.07484 127.081 4.82153 127.081 4.65722V4.57507C127.081 4.31492 127.236 4.18484 127.545 4.18484H136.782C136.997 4.18484 137.152 4.23277 137.246 4.32861C137.354 4.42446 137.428 4.58876 137.468 4.82153L137.952 7.40935C137.979 7.58735 137.945 7.73112 137.851 7.84065C137.757 7.95019 137.623 8.00496 137.448 8.00496H137.347C137.091 8.00496 136.829 7.88173 136.56 7.63527C136.305 7.37512 136.076 7.10128 135.875 6.81374C135.686 6.51251 135.438 6.23867 135.128 5.99221C134.833 5.73206 134.523 5.60198 134.201 5.60198H132.426C131.821 5.60198 131.518 5.93744 131.518 6.60836V10.6339H133.636C133.878 10.6339 134.093 10.5517 134.281 10.3874C134.47 10.2094 134.611 10.0177 134.705 9.81233C134.799 9.60695 134.907 9.4221 135.028 9.25779C135.162 9.0798 135.29 8.9908 135.411 8.9908H135.572C135.841 8.9908 135.976 9.14826 135.976 9.46318V13.1601C135.976 13.475 135.841 13.6324 135.572 13.6324H135.411C135.29 13.6324 135.162 13.5503 135.028 13.386C134.907 13.2217 134.799 13.0437 134.705 12.852C134.611 12.6603 134.47 12.4823 134.281 12.318C134.093 12.1537 133.878 12.0715 133.636 12.0715H131.518V15.8506C131.518 16.2613 131.613 16.6173 131.801 16.9186C131.989 17.2061 132.298 17.3499 132.728 17.3499H134.846C135.169 17.3499 135.465 17.2198 135.734 16.9596C136.016 16.6858 136.244 16.3914 136.419 16.0765C136.594 15.7616 136.802 15.474 137.044 15.2139C137.3 14.94 137.562 14.8031 137.831 14.8031H138.012C138.16 14.8031 138.275 14.8716 138.355 15.0085C138.436 15.1317 138.463 15.2687 138.436 15.4193L137.992 18.1098C137.952 18.3426 137.878 18.5137 137.77 18.6232C137.676 18.7191 137.515 18.767 137.286 18.767H127.565Z" fill="white"/>
<path d="M145.456 18.9724C143.695 18.9724 142.236 18.589 141.079 17.8222C139.923 17.0555 139.345 16.1929 139.345 15.2344C139.345 14.2623 139.829 13.7762 140.797 13.7762C141.187 13.7762 141.53 13.9131 141.826 14.187C142.121 14.4471 142.37 14.7689 142.572 15.1523C142.774 15.522 142.989 15.8985 143.217 16.2819C143.446 16.6516 143.762 16.9665 144.165 17.2266C144.569 17.4868 145.046 17.6169 145.597 17.6169C146.189 17.6169 146.653 17.4663 146.989 17.165C147.338 16.8638 147.513 16.4462 147.513 15.9122C147.513 15.3782 147.365 14.9332 147.069 14.5772C146.787 14.2075 146.411 13.9268 145.94 13.7351C145.483 13.5298 144.972 13.3518 144.407 13.2011C143.842 13.0368 143.278 12.852 142.713 12.6466C142.148 12.4275 141.631 12.1674 141.16 11.8662C140.703 11.5512 140.327 11.1062 140.031 10.5312C139.735 9.9424 139.587 9.2441 139.587 8.43626C139.587 7.12182 140.085 6.05383 141.079 5.2323C142.074 4.41076 143.399 4 145.053 4C146.679 4 148.051 4.37653 149.167 5.1296C150.296 5.86898 150.854 6.7179 150.841 7.67635C150.841 8.14188 150.706 8.51157 150.437 8.78541C150.182 9.04557 149.806 9.17564 149.308 9.17564C148.864 9.17564 148.488 9.04557 148.179 8.78541C147.869 8.51157 147.621 8.1898 147.432 7.82012C147.258 7.45043 147.076 7.08074 146.888 6.71105C146.713 6.32767 146.464 6.0059 146.142 5.74575C145.832 5.47191 145.449 5.33499 144.992 5.33499C144.387 5.33499 143.923 5.50614 143.6 5.84844C143.278 6.17706 143.116 6.60836 143.116 7.14235C143.116 7.73112 143.258 8.23088 143.54 8.64165C143.836 9.03872 144.212 9.34679 144.669 9.56587C145.14 9.78494 145.658 9.98348 146.222 10.1615C146.787 10.3258 147.345 10.5106 147.896 10.716C148.461 10.9214 148.972 11.1747 149.429 11.4759C149.9 11.7635 150.276 12.1811 150.558 12.7288C150.854 13.2764 151.002 13.9405 151.002 14.721C151.002 16.0217 150.464 17.0555 149.389 17.8222C148.327 18.589 147.016 18.9724 145.456 18.9724Z" fill="white"/>
<path d="M15.0565 21.0997C14.939 20.4585 15.0764 19.796 15.4383 19.2578C15.8002 18.7196 16.357 18.3497 16.9865 18.2294C16.8905 18.0741 16.8246 17.9016 16.7924 17.7211C16.6116 16.7338 17.4835 15.7397 18.738 15.5025C19.0306 15.4461 19.3299 15.4362 19.6254 15.4732C19.6709 14.8858 20.1678 14.3594 20.8545 14.2306C20.9737 14.2082 21.0949 14.1991 21.2161 14.2035C21.9235 11.7998 21.8055 9.22241 20.8813 6.89628C19.9571 4.57016 18.282 2.63425 16.1323 1.40783C13.9826 0.181407 11.4866 -0.262282 9.05605 0.149935C6.62545 0.562152 4.4054 1.80566 2.76201 3.67537C1.11863 5.54508 0.150059 7.92934 0.0160459 10.4349C-0.117968 12.9405 0.590578 15.4178 2.02483 17.4582C3.45908 19.4986 5.53337 20.9803 7.90562 21.659C10.2779 22.3376 12.8064 22.1726 15.0742 21.1912C15.0687 21.1607 15.062 21.1302 15.0565 21.0997Z" fill="#FFCD00"/>
<path d="M21.2063 23C22.6919 23 23.8962 21.7736 23.8962 20.2607C23.8962 18.7479 22.6919 17.5214 21.2063 17.5214C19.7207 17.5214 18.5164 18.7479 18.5164 20.2607C18.5164 21.7736 19.7207 23 21.2063 23Z" fill="#FFCD00"/>
<path d="M10.8302 13.7674C12.3158 13.7674 13.5201 12.541 13.5201 11.0282C13.5201 9.51529 12.3158 8.28887 10.8302 8.28887C9.34463 8.28887 8.14032 9.51529 8.14032 11.0282C8.14032 12.541 9.34463 13.7674 10.8302 13.7674Z" fill="#852E2C"/>
</svg>
